<!-- Generated by IcoMoon.io -->
<svg version="1.1" xmlns="http://www.w3.org/2000/svg" fill="#FFF" viewBox="0 0 5086 1024">
<title></title>
<g id="icomoon-ignore">
</g>
<path d="M1334.613 385.707h44.373l-232.107 590.507h-37.547l-232.107-590.507h47.787l157.013 402.773c23.893 58.027 37.547 105.813 47.787 136.533 3.413-20.48 17.067-51.2 34.133-95.573l170.667-443.733z"></path>
<path d="M1416.533 413.013c0-23.893 10.24-37.547 27.307-37.547 10.24 0 17.067 3.413 20.48 10.24 6.827 6.827 6.827 17.067 6.827 30.72 0 10.24 0 20.48-6.827 27.307-3.413 6.827-10.24 10.24-20.48 10.24-17.067 0-27.307-13.653-27.307-40.96v0zM1464.32 976.213h-40.96v-440.32h40.96v440.32z"></path>
<path d="M1686.187 976.213l-177.493-440.32h44.373l119.467 300.373c13.653 37.547 27.307 71.68 34.133 98.987h3.413c10.24-37.547 23.893-68.267 34.133-98.987l119.467-300.373h44.373l-177.493 440.32h-44.373z"></path>
<path d="M2232.32 976.213l-10.24-68.267h-3.413c-23.893 27.307-47.787 47.787-71.68 58.027-23.893 13.653-54.613 20.48-88.747 20.48-44.373 0-78.507-13.653-105.813-34.133-23.893-23.893-37.547-54.613-37.547-92.16 0-44.373 20.48-75.093 58.027-98.987s92.16-37.547 163.84-37.547l85.333-3.413v-30.72c0-40.96-6.827-71.68-27.307-92.16-17.067-23.893-44.373-34.133-85.333-34.133s-85.333 10.24-133.12 34.133l-13.653-34.133c47.787-23.893 98.987-34.133 150.187-34.133s88.747 13.653 112.64 37.547c23.893 23.893 37.547 64.853 37.547 116.053v293.547h-30.72zM2061.653 948.907c51.2 0 88.747-13.653 116.053-40.96 30.72-27.307 44.373-64.853 44.373-112.64v-40.96l-81.92 3.413c-64.853 0-109.227 10.24-139.947 27.307-27.307 17.067-40.96 40.96-40.96 75.093 0 27.307 10.24 51.2 27.307 64.853s44.373 23.893 75.093 23.893v0z"></path>
<path d="M2860.373 675.84c0 98.987-27.307 174.080-81.92 225.28s-133.12 75.093-242.347 75.093h-146.773v-590.507h167.253c98.987 0 174.080 23.893 225.28 71.68 54.613 51.2 78.507 122.88 78.507 218.453v0zM2812.587 675.84c0-85.333-20.48-146.773-64.853-191.147-47.787-40.96-112.64-64.853-201.387-64.853h-112.64v518.827h102.4c184.32 0 276.48-85.333 276.48-262.827v0z"></path>
<path d="M3147.093 983.040c-68.267 0-119.467-17.067-157.013-58.027s-58.027-95.573-58.027-163.84c0-71.68 17.067-126.293 54.613-170.667 37.547-40.96 85.333-61.44 146.773-61.44 54.613 0 98.987 17.067 129.707 54.613 30.72 34.133 47.787 81.92 47.787 146.773v30.72h-334.507c0 61.44 13.653 105.813 44.373 139.947 27.307 30.72 71.68 47.787 126.293 47.787 23.893 0 47.787-3.413 68.267-6.827s44.373-10.24 75.093-20.48v34.133c-23.893 10.24-51.2 20.48-71.68 23.893s-47.787 3.413-71.68 3.413v0zM3133.44 563.2c-44.373 0-78.507 13.653-105.813 40.96-27.307 30.72-44.373 68.267-47.787 122.88h286.72c0-51.2-13.653-92.16-37.547-119.467-20.48-30.72-54.613-44.373-95.573-44.373v0z"></path>
<path d="M3587.413 983.040c-64.853 0-119.467-17.067-157.013-58.027-34.133-40.96-54.613-95.573-54.613-167.253s20.48-129.707 58.027-167.253c37.547-40.96 92.16-61.44 160.427-61.44 40.96 0 78.507 6.827 116.053 20.48l-13.653 34.133c-40.96-13.653-75.093-20.48-102.4-20.48-58.027 0-102.4 17.067-129.707 51.2-30.72 34.133-44.373 81.92-44.373 143.36 0 58.027 13.653 105.813 44.373 139.947s68.267 51.2 122.88 51.2c40.96 0 78.507-6.827 116.053-23.893v37.547c-30.72 13.653-68.267 20.48-116.053 20.48v0z"></path>
<path d="M4164.267 754.347c0 71.68-17.067 129.707-54.613 170.667s-85.333 58.027-150.187 58.027c-40.96 0-78.507-6.827-109.227-27.307-30.72-17.067-54.613-44.373-68.267-78.507-17.067-37.547-27.307-75.093-27.307-122.88 0-71.68 20.48-126.293 54.613-167.253 37.547-37.547 88.747-58.027 153.6-58.027 61.44 0 112.64 20.48 146.773 61.44 37.547 37.547 54.613 95.573 54.613 163.84v0zM3799.040 754.347c0 61.44 13.653 109.227 40.96 143.36 30.72 34.133 68.267 51.2 119.467 51.2s92.16-17.067 119.467-51.2c27.307-34.133 40.96-81.92 40.96-143.36 0-58.027-13.653-105.813-40.96-139.947s-68.267-51.2-119.467-51.2c-51.2 0-92.16 17.067-119.467 51.2s-40.96 81.92-40.96 139.947v0z"></path>
<path d="M4440.747 529.067c20.48 0 40.96 0 61.44 3.413l-6.827 40.96c-20.48-6.827-37.547-6.827-61.44-6.827-37.547 0-71.68 13.653-95.573 47.787-23.893 30.72-37.547 71.68-37.547 119.467v242.347h-40.96v-440.32h34.133l3.413 78.507h3.413c20.48-30.72 40.96-54.613 61.44-68.267 20.48-10.24 47.787-17.067 78.507-17.067v0z"></path>
<path d="M4843.52 976.213l-10.24-68.267h-3.413c-23.893 27.307-47.787 47.787-71.68 58.027-23.893 13.653-54.613 20.48-88.747 20.48-44.373 0-78.507-13.653-105.813-34.133-23.893-23.893-37.547-54.613-37.547-92.16 0-44.373 20.48-75.093 58.027-98.987s92.16-37.547 163.84-37.547l85.333-3.413v-30.72c0-40.96-6.827-71.68-27.307-92.16-17.067-23.893-44.373-34.133-85.333-34.133s-85.333 10.24-133.12 34.133l-13.653-34.133c51.2-23.893 98.987-34.133 150.187-34.133s88.747 13.653 112.64 37.547c23.893 23.893 37.547 64.853 37.547 116.053v293.547h-30.72zM4672.853 948.907c51.2 0 88.747-13.653 116.053-40.96 30.72-27.307 44.373-64.853 44.373-112.64v-40.96l-81.92 3.413c-64.853 0-109.227 10.24-139.947 27.307-27.307 17.067-40.96 40.96-40.96 75.093 0 27.307 10.24 51.2 27.307 64.853s44.373 23.893 75.093 23.893v0z"></path>
<path d="M481.28 34.133c37.547 0 54.613 27.307 34.133 58.027l-81.92 139.947c-17.067 30.72-51.2 30.72-68.267 0l-81.92-139.947c-20.48-30.72-3.413-58.027 34.133-58.027h163.84z"></path>
<path d="M508.587 331.093c-40.96 0-54.613-27.307-34.133-58.027l78.507-139.947c20.48-30.72 51.2-30.72 71.68 0l81.92 139.947c17.067 30.72 3.413 58.027-34.133 58.027h-163.84z"></path>
<path d="M286.72 372.053c37.547 0 54.613 23.893 34.133 58.027l-102.4 174.080c-20.48 34.133-51.2 34.133-68.267 0l-105.813-174.080c-17.067-34.133-3.413-58.027 34.133-58.027h208.213z"></path>
<path d="M672.427 372.053c37.547 0 51.2 23.893 34.133 58.027l-81.92 136.533c-20.48 34.133-51.2 34.133-71.68 0l-78.507-136.533c-20.48-34.133-6.827-58.027 34.133-58.027h163.84z"></path>
<path d="M317.44 665.6c-37.547 0-54.613-23.893-34.133-58.027l81.92-139.947c17.067-30.72 51.2-30.72 68.267 0l81.92 139.947c20.48 34.133 3.413 58.027-34.133 58.027h-163.84z"></path>
<path d="M481.28 706.56c37.547 0 54.613 27.307 34.133 58.027l-81.92 139.947c-20.48 30.72-51.2 30.72-68.267 0l-81.92-139.947c-20.48-30.72-3.413-58.027 34.133-58.027h163.84z"></path>
</svg>
